<svg
   xmlns:dc="http://purl.org/dc/elements/1.1/"
   xmlns:cc="http://creativecommons.org/ns#"
   xmlns:rdf="http://www.w3.org/1999/02/22-rdf-syntax-ns#"
   xmlns:svg="http://www.w3.org/2000/svg"
   xmlns="http://www.w3.org/2000/svg"
   xmlns:sodipodi="http://sodipodi.sourceforge.net/DTD/sodipodi-0.dtd"
   xmlns:inkscape="http://www.inkscape.org/namespaces/inkscape"
   id="svg-nhc-logo"
   version="1.1"
   viewBox="0 0 300 300"
   inkscape:version="0.48.4 r9939"
   width="100%"
   height="100%"
   sodipodi:docname="nhc-svg.svg">
  <path
     d="M 0,230.68627 0,160 l 70,0 70,0 0,70.68627 0,69.31373 -70,0 -70,0 z"
     class="logo-back tornado-back"
     inkscape:connector-curvature="0" />
  <path
     d="m 160,230 0,-70 71.36546,0 68.63454,0 0,70 0,70 -68.63454,0 L 160,300 z"
     class="logo-back quake-back"
     inkscape:connector-curvature="0" />
  <path
     d="M 160,68.341235 160,1.88e-6 l 68.95523,0 71.04477,0 0,68.34123312 0,71.658765 -71.04477,0 -68.25872,0 z"
     class="logo-back bolt-back"
     inkscape:connector-curvature="0" />
  <path
     d="M 0,69.999994 0,4.4e-6 l 70,0 70,0 0,69.9999896 L 140,140 70,140 0,140 0,69.999994 z"
     class="logo-back sea-back"
     inkscape:connector-curvature="0" />
  <path
     d="m 39.253574,289.053 c 13.163004,-14.56151 18.958565,-24.77751 18.958565,-39.02109 0,-9.30638 -0.553715,-11.55219 -5.231609,-21.21889 -4.612897,-9.53236 -7.621975,-13.19309 -25.443558,-30.9536 C 6.6443963,177.03843 2.8216053,171.50356 4.2749189,164.17915 l 0.8292261,-4.46122 62.082516,0 62.082509,0 2.40069,3.98634 c 1.77195,2.94233 2.38404,6.44057 2.32581,16.03587 -0.0636,10.48818 -0.79641,14.4253 -4.90179,26.33738 -11.44553,33.2101 -39.443389,67.01979 -71.432071,86.26005 -10.453627,6.28755 -12.133065,7.94013 -19.88399,7.8319 l -8.466203,-0.11823 z"
     class="logo-front tornado"
     inkscape:connector-curvature="0"
     sodipodi:nodetypes="ssssscccssssscs" />
  <path
     d="m 160,255.66636 0,-44.43363 3.67452,-0.0462 c 2.02099,-0.0254 23.517,-1.77298 47.76888,-3.88348 24.25188,-2.11052 44.3105,-3.63809 44.57471,-3.39459 0.26421,0.24349 -10.35483,21.82117 -23.59784,47.95038 L 208.34202,300.1 l -24.17101,0 -24.17101,0 z"
     class="logo-front quake1"
     inkscape:connector-curvature="0"
     sodipodi:nodetypes="ccsscccccc" />
  <path
     d="m 227.63246,290.34624 c 3.18501,-5.30956 13.74308,-23.13572 23.46238,-39.61368 9.7193,-16.47797 17.77707,-30.1006 17.90614,-30.27253 0.12902,-0.17193 4.98746,-0.92114 10.79642,-1.66491 5.80896,-0.74376 12.80874,-1.65878 15.55507,-2.03334 l 4.99332,-0.68107 0,41.95965 0,41.95964 -39.25213,0 -39.25212,0 5.79092,-9.65376 z"
     class="logo-front quake2"
     inkscape:connector-curvature="0" />
  <path
     d="m 180,139.99332 c 0,-0.42769 11.83006,-18.72461 25.49019,-36.57967 13.66013,-17.85506 24.8366,-33.099684 24.8366,-33.876923 0,-0.777253 -5.44117,-4.192638 -12.0915,-7.589743 -6.65033,-3.397093 -12.28799,-6.357947 -12.52815,-6.579679 -0.24015,-0.221716 6.16387,-12.470685 14.23116,-27.219945 L 234.60608,-3.600027e-6 l 22.36364,0 22.85207,0 L 274.53728,7.0056554 c -9.30132,12.3307596 -27.21702,35.5264336 -27.21702,36.0537786 0,0.305322 7.35294,4.049011 16.33986,8.319312 C 272.64706,55.649047 280,59.560092 280,60.069959 280,60.579825 257.64705,78.19501 230.32679,99.214801 203.00654,120.2346 180,140.421 180,139.99332 z"
     class="logo-front bolt"
     inkscape:connector-curvature="0" />
  <path
     d="m 0,68 c 1.6689112,-3.109498 15.539861,-13.451644 23.163024,-17.329611 8.226051,-4.184668 21.358559,-3.502888 26.600894,1.380995 8.06375,7.512368 9.521348,16.124634 3.863757,22.829133 -4.190494,4.965945 -6.337914,5.364247 -5.231987,0.97044 0.565235,-2.24566 -0.189072,-4.341463 -2.545899,-7.07364 -2.926547,-3.392612 -3.820098,-3.715289 -7.082027,-2.557407 -5.747163,2.040077 -9.457554,7.966669 -9.307823,14.867336 0.250911,11.563563 9.454625,18.669436 20.153707,15.559976 9.074477,-2.63729 15.556178,-8.100359 26.720391,-22.521119 16.586252,-21.424389 23.279126,-26.198277 36.716083,-26.188797 16.57083,0.01217 27.16414,15.960227 17.89617,26.943211 -4.41258,5.229108 -5.83322,5.25401 -5.68626,0.09969 0.13185,-4.6231 -3.58609,-9.464148 -7.26843,-9.464148 -1.36473,0 -4.34335,1.673848 -6.61921,3.719659 -10.44574,9.389904 -3.46157,28.178272 10.32979,27.788465 2.50147,-0.07074 7.38733,-1.71092 10.85754,-3.644911 3.47019,-1.934007 7.21353,-3.347897 7.49259,-3.347897 0.27908,0 0.0769,11.091955 0.0769,24.854685 l 0,25.26769 C 102.23793,140.04124 46.576496,140.39572 -0.2,140.34103 0,68.120655 -5.1775937,84.982275 0,68 z"
     class="logo-front sea"
     inkscape:connector-curvature="0"
     sodipodi:nodetypes="cssssssssscsssscsssccc" />
</svg>
